<?xml version="1.0" encoding="UTF-8"?>
<svg version="1.1" xmlns="http://www.w3.org/2000/svg" width="150" height="150">
<path d="M0 0 C49.5 0 99 0 150 0 C150 49.5 150 99 150 150 C100.5 150 51 150 0 150 C0 100.5 0 51 0 0 Z " fill="#29584F" transform="translate(0,0)"/>
<path d="M0 0 C0.97238113 0.00565979 1.94476227 0.01131958 2.9466095 0.01715088 C6.05474925 0.03955571 9.16173949 0.08976019 12.26953125 0.140625 C14.3756344 0.16068467 16.48175561 0.17893636 18.58789062 0.1953125 C23.75304761 0.23943407 28.91734449 0.3084904 34.08203125 0.390625 C34.22917186 4.18187247 34.31670952 7.97237154 34.39453125 11.765625 C34.43642578 12.82652344 34.47832031 13.88742188 34.52148438 14.98046875 C34.63751442 22.54562773 33.42159733 28.10684172 29.08203125 34.390625 C26.765625 36.64453125 26.765625 36.64453125 24.51953125 37.953125 C23.40384766 38.63568359 23.40384766 38.63568359 22.265625 39.33203125 C17.66667026 41.56157818 13.2933095 41.52440702 8.25390625 41.48828125 C7.25738037 41.48677063 7.25738037 41.48677063 6.24072266 41.48522949 C3.77114117 41.48001762 1.30158438 41.46605639 -1.16796875 41.453125 C-6.69546875 41.4325 -12.22296875 41.411875 -17.91796875 41.390625 C-17.91796875 57.560625 -17.91796875 73.730625 -17.91796875 90.390625 C-22.33171875 90.431875 -26.74546875 90.473125 -31.29296875 90.515625 C-33.3800415 90.54293701 -33.3800415 90.54293701 -35.50927734 90.57080078 C-36.60062988 90.5757959 -37.69198242 90.58079102 -38.81640625 90.5859375 C-39.93708496 90.59641113 -41.05776367 90.60688477 -42.21240234 90.61767578 C-44.91796875 90.390625 -44.91796875 90.390625 -46.91796875 88.390625 C-46.34949219 87.83117187 -45.78101562 87.27171875 -45.1953125 86.6953125 C-30.66988882 71.61215135 -27.71959274 53.1762522 -23.9375 33.2734375 C-21.86814285 22.67106485 -18.37542411 13.73665737 -12.91796875 4.390625 C-12.58829102 3.67148926 -12.25861328 2.95235352 -11.91894531 2.21142578 C-8.51720384 -0.88400954 -4.41897803 -0.09634007 0 0 Z " fill="#F9FAFA" transform="translate(115.91796875,48.609375)"/>
<path d="M0 0 C0.99 0.495 0.99 0.495 2 1 C1.34773438 1.51949219 0.69546875 2.03898437 0.0234375 2.57421875 C-1.79019076 4.0213764 -3.59990517 5.47344883 -5.40625 6.9296875 C-7.28331049 8.42794361 -9.19441884 9.88386994 -11.125 11.3125 C-27.38860642 26.51543643 -31.55042315 46.91266595 -35.71875 67.78686523 C-38.34168715 80.58170233 -41.87962174 94.05640991 -52 103 C-52.79277344 103.79664063 -52.79277344 103.79664063 -53.6015625 104.609375 C-63.64145139 114.26475751 -79.16750339 120.95603799 -93 122 C-90.0719696 119.77523787 -87.08650047 117.6546051 -84.0625 115.5625 C-77.66864328 111.5917002 -77.66864328 111.5917002 -73 106 C-72.34 106 -71.68 106 -71 106 C-70.71898438 105.42507812 -70.43796875 104.85015625 -70.1484375 104.2578125 C-69.04207849 102.08272574 -67.84806692 99.98615372 -66.625 97.875 C-59.19383907 84.55167597 -56.79051525 70.51457193 -59.68359375 55.4375 C-62.75606627 45.64638425 -68.13010168 37.52417435 -75 30 C-68.68659495 31.51521721 -62.48495517 33.31766514 -56.26953125 35.1953125 C-52.14517983 36.29711085 -52.14517983 36.29711085 -48 36 C-45.74029903 34.05719025 -43.81149976 32.18170404 -41.8125 30 C-40.65602877 28.79333244 -39.49585198 27.59020559 -38.33203125 26.390625 C-37.4805249 25.51180664 -37.4805249 25.51180664 -36.61181641 24.61523438 C-33.03428711 21.03011867 -29.07520555 17.99176721 -25 15 C-23.47246094 13.87464844 -23.47246094 13.87464844 -21.9140625 12.7265625 C-15.06345696 7.7836297 -7.93627072 3.01709465 0 0 Z " fill="#FBFCFB" transform="translate(118,27)"/>
<path d="M0 0 C2.31590623 0.79316636 3.87023811 1.79675978 5.82202148 3.26855469 C6.50844727 3.78417969 7.19487305 4.29980469 7.90209961 4.83105469 C8.60915039 5.37246094 9.31620117 5.91386719 10.04467773 6.47167969 C10.74786133 6.99761719 11.45104492 7.52355469 12.17553711 8.06542969 C22.38621793 15.7976041 29.78512422 24.13695932 33.10717773 36.72167969 C33.10717773 38.04167969 33.10717773 39.36167969 33.10717773 40.72167969 C16.27717773 40.72167969 -0.55282227 40.72167969 -17.89282227 40.72167969 C-17.89282227 16.72167969 -17.89282227 16.72167969 -12.89282227 6.72167969 C-10.50610352 4.46777344 -10.50610352 4.46777344 -8.20532227 3.15917969 C-7.43833008 2.70414063 -6.67133789 2.24910156 -5.88110352 1.78027344 C-1.98824121 -0.2923507 -1.98824121 -0.2923507 0 0 Z " fill="#F9FAFA" transform="translate(18.892822265625,49.2783203125)"/>
<path d="M0 0 C4.14654634 -0.10856412 8.29021168 -0.18760125 12.4375 -0.25 C14.18450195 -0.30027344 14.18450195 -0.30027344 15.96679688 -0.3515625 C24.67532975 -0.44968681 30.94688405 0.75750724 37.8125 6.25 C43.12116608 12.92375165 45.16060649 18.87411508 44.9921875 27.56640625 C43.33401267 33.30473567 39.12636437 35.64172075 34.13671875 38.5234375 C31 40 31 40 28 40 C27.7525 38.948125 27.505 37.89625 27.25 36.8125 C25.93107644 32.36225453 24.15818607 29.42944792 20.1953125 26.8046875 C13.53832518 23.31769414 7.39961841 23.68843712 0 24 C0 16.08 0 8.16 0 0 Z " fill="#FBFCFC" transform="translate(54,0)"/>
<path d="M0 0 C3.20887887 2.06794416 4.92612398 3.4750655 6.8125 6.8125 C7.63058197 11.40377634 7.46695904 14.71394376 5.0625 18.75 C0.44981539 22.97829422 -3.44699233 23.24682281 -9.5546875 23.1328125 C-13.14617704 22.6958657 -14.84304222 21.53509614 -17.1875 18.8125 C-19.42439348 15.82997535 -19.72075537 12.61439717 -19.64453125 8.9140625 C-18.80056175 5.03324549 -16.17086598 2.31678531 -13.1875 -0.1875 C-8.48227445 -1.75590852 -4.66101184 -1.73645539 0 0 Z " fill="#FAFBFB" transform="translate(68.1875,31.1875)"/>
<path d="M0 0 C0.66 0.33 1.32 0.66 2 1 C-2.30769231 4.93846154 -2.30769231 4.93846154 -5.8125 5.25 C-6.534375 5.1675 -7.25625 5.085 -8 5 C-5.45378681 2.99940392 -3.01962385 1.20784954 0 0 Z " fill="#D1DBD9" transform="translate(118,27)"/>
</svg>
